<?xml version="1.0" standalone="no"?>
<!DOCTYPE svg PUBLIC "-//W3C//DTD SVG 20010904//EN"
 "http://www.w3.org/TR/2001/REC-SVG-20010904/DTD/svg10.dtd">
<svg version="1.0" xmlns="http://www.w3.org/2000/svg"
 width="512.000000pt" height="512.000000pt" viewBox="0 0 512.000000 512.000000"
 preserveAspectRatio="xMidYMid meet">
<metadata>
Created by potrace 1.16, written by Peter Selinger 2001-2019
</metadata>
<g transform="translate(0.000000,512.000000) scale(0.100000,-0.100000)"
fill="#000000" stroke="none">
<path d="M140 4410 l0 -570 150 0 150 0 0 425 0 425 425 0 425 0 0 145 0 145
-575 0 -575 0 0 -570z"/>
<path d="M3810 4835 l0 -145 420 0 420 0 0 -425 0 -425 150 0 150 0 0 570 0
570 -570 0 -570 0 0 -145z"/>
<path d="M720 3705 l0 -705 705 0 705 0 0 420 0 420 135 0 135 0 0 -280 0
-280 145 0 145 0 0 285 0 285 -140 0 -140 0 0 135 0 135 140 0 140 0 0 145 0
145 -145 0 -145 0 0 -140 0 -140 -135 0 -135 0 0 140 0 140 -705 0 -705 0 0
-705z m840 0 l0 -135 -135 0 -135 0 0 135 0 135 135 0 135 0 0 -135z"/>
<path d="M2970 3705 l0 -705 280 0 280 0 0 -135 0 -135 -420 0 -420 0 0 140 0
140 -145 0 -145 0 0 -285 0 -285 -135 0 -135 0 0 145 0 145 -705 0 -705 0 0
-145 0 -145 280 0 280 0 0 -140 0 -140 -140 0 -140 0 0 -140 0 -140 -140 0
-140 0 0 -285 0 -285 140 0 140 0 0 -135 0 -135 -140 0 -140 0 0 -145 0 -145
145 0 145 0 0 140 0 140 135 0 135 0 0 -140 0 -140 705 0 705 0 0 145 0 145
-140 0 -140 0 0 140 0 140 -145 0 -145 0 0 -140 0 -140 -275 0 -275 0 0 135 0
135 140 0 140 0 0 140 0 140 140 0 140 0 0 280 0 280 140 0 140 0 0 145 0 145
560 0 560 0 0 -140 0 -140 -425 0 -425 0 0 -140 0 -140 -140 0 -140 0 0 -145
0 -145 140 0 140 0 0 -140 0 -140 145 0 145 0 0 -280 0 -280 705 0 705 0 0
705 0 705 -280 0 -280 0 0 140 0 140 280 0 280 0 0 145 0 145 -280 0 -280 0 0
135 0 135 280 0 280 0 0 705 0 705 -705 0 -705 0 0 -705z m840 0 l0 -135 -135
0 -135 0 0 135 0 135 135 0 135 0 0 -135z m0 -1125 l0 -140 -135 0 -135 0 0
140 0 140 135 0 135 0 0 -140z m-1690 -280 l0 -140 -140 0 -140 0 0 -280 0
-280 -135 0 -135 0 0 420 0 420 275 0 275 0 0 -140z m-840 -705 l0 -275 -135
0 -135 0 0 275 0 275 135 0 135 0 0 -275z m1690 140 l0 -135 -140 0 -140 0 0
135 0 135 140 0 140 0 0 -135z m840 -280 l0 -135 -135 0 -135 0 0 135 0 135
135 0 135 0 0 -135z"/>
<path d="M140 745 l0 -575 575 0 575 0 0 155 0 155 -425 0 -425 0 0 420 0 420
-150 0 -150 0 0 -575z"/>
<path d="M4650 900 l0 -420 -420 0 -420 0 0 -155 0 -155 570 0 570 0 0 575 0
575 -150 0 -150 0 0 -420z"/>
</g>
</svg>
