<svg xmlns="http://www.w3.org/2000/svg" style="display: none;">
  <symbol id="qr" viewBox="0 0 24 24" fill="none" stroke="currentColor" stroke-width="1.75" stroke-linecap="round" stroke-linejoin="round">
    <rect x="3" y="3" width="6" height="6" rx="1.2" />
    <rect x="15" y="3" width="6" height="6" rx="1.2" />
    <rect x="3" y="15" width="6" height="6" rx="1.2" />
    <path d="M15 15h2v2h-2z" />
    <path d="M19 15h2v6h-6v-2" />
    <path d="M12 7h1" />
    <path d="M12 12h1" />
    <path d="M12 17h1" />
    <path d="M7 12h1" />
    <path d="M17 12h1" />
  </symbol>
  <symbol id="scan" viewBox="0 0 24 24" fill="none" stroke="currentColor" stroke-width="1.75" stroke-linecap="round" stroke-linejoin="round">
    <path d="M7 3H5a2 2 0 0 0-2 2v2" />
    <path d="M17 3h2a2 2 0 0 1 2 2v2" />
    <path d="M7 21H5a2 2 0 0 1-2-2v-2" />
    <path d="M17 21h2a2 2 0 0 0 2-2v-2" />
    <path d="M4 12h16" />
  </symbol>
  <symbol id="history" viewBox="0 0 24 24" fill="none" stroke="currentColor" stroke-width="1.75" stroke-linecap="round" stroke-linejoin="round">
    <path d="M3 12a9 9 0 1 0 2.64-6.36" />
    <path d="M3 5v5h5" />
    <path d="M12 7v5l3 2" />
  </symbol>
  <symbol id="palette" viewBox="0 0 24 24" fill="none" stroke="currentColor" stroke-width="1.75" stroke-linecap="round" stroke-linejoin="round">
    <path d="M12 3a9 9 0 0 0 0 18h1.4a1.6 1.6 0 0 0 1.58-1.86 1.84 1.84 0 0 1 2.05-2.15H18A6 6 0 0 0 18 5h-6z" />
    <circle cx="7.5" cy="10" r="1" />
    <circle cx="9.5" cy="7" r="1" />
    <circle cx="14.5" cy="7" r="1" />
    <circle cx="16.5" cy="11" r="1" />
  </symbol>
  <symbol id="info" viewBox="0 0 24 24" fill="none" stroke="currentColor" stroke-width="1.75" stroke-linecap="round" stroke-linejoin="round">
    <circle cx="12" cy="12" r="9" />
    <path d="M12 10v5" />
    <path d="M12 7.25h.01" />
  </symbol>
  <symbol id="reset" viewBox="0 0 24 24" fill="none" stroke="currentColor" stroke-width="1.75" stroke-linecap="round" stroke-linejoin="round">
    <path d="M20 11a8 8 0 1 1-2.34-5.66L20 8" />
    <path d="M20 4v4h-4" />
  </symbol>
  <symbol id="sparkles" viewBox="0 0 24 24" fill="none" stroke="currentColor" stroke-width="1.75" stroke-linecap="round" stroke-linejoin="round">
    <path d="m12 3 1.5 4.5L18 9l-4.5 1.5L12 15l-1.5-4.5L6 9l4.5-1.5L12 3Z" />
    <path d="m19 14 .8 2.2L22 17l-2.2.8L19 20l-.8-2.2L16 17l2.2-.8L19 14Z" />
    <path d="m5 14 .8 2.2L8 17l-2.2.8L5 20l-.8-2.2L2 17l2.2-.8L5 14Z" />
  </symbol>
  <symbol id="settings" viewBox="0 0 24 24" fill="none" stroke="currentColor" stroke-width="1.75" stroke-linecap="round" stroke-linejoin="round">
    <path d="M4 6h8" />
    <path d="M16 6h4" />
    <circle cx="14" cy="6" r="2" />
    <path d="M4 12h4" />
    <path d="M12 12h8" />
    <circle cx="10" cy="12" r="2" />
    <path d="M4 18h10" />
    <path d="M18 18h2" />
    <circle cx="16" cy="18" r="2" />
  </symbol>
  <symbol id="link" viewBox="0 0 24 24" fill="none" stroke="currentColor" stroke-width="1.75" stroke-linecap="round" stroke-linejoin="round">
    <path d="M10 13a5 5 0 0 1 0-7l1-1a5 5 0 0 1 7 7l-1 1" />
    <path d="M14 11a5 5 0 0 1 0 7l-1 1a5 5 0 1 1-7-7l1-1" />
  </symbol>
  <symbol id="wifi" viewBox="0 0 24 24" fill="none" stroke="currentColor" stroke-width="1.75" stroke-linecap="round" stroke-linejoin="round">
    <path d="M4.93 9a12 12 0 0 1 14.14 0" />
    <path d="M7.76 11.83a8 8 0 0 1 8.48 0" />
    <path d="M10.59 14.66a4 4 0 0 1 2.82 0" />
    <path d="M12 18h.01" />
  </symbol>
  <symbol id="whatsapp" viewBox="0 0 24 24" fill="none" stroke="currentColor" stroke-width="1.75" stroke-linecap="round" stroke-linejoin="round">
    <path d="M20 11.3A8.3 8.3 0 0 1 7.6 18.7L4 20l1.3-3.4A8.3 8.3 0 1 1 20 11.3Z" />
    <path d="M9.5 9.4c.3 1.7 2 3.4 3.7 3.7" />
    <path d="M14.3 13.1c-.5.5-1.1.7-1.8.6" />
  </symbol>
  <symbol id="group" viewBox="0 0 24 24" fill="none" stroke="currentColor" stroke-width="1.75" stroke-linecap="round" stroke-linejoin="round">
    <path d="M16 19a4 4 0 0 0-8 0" />
    <circle cx="12" cy="10" r="3" />
    <path d="M21 19a3 3 0 0 0-3-3" />
    <path d="M3 19a3 3 0 0 1 3-3" />
    <path d="M17.5 8.5A2.5 2.5 0 0 1 20 11" />
    <path d="M6.5 8.5A2.5 2.5 0 0 0 4 11" />
  </symbol>
  <symbol id="phone" viewBox="0 0 24 24" fill="none" stroke="currentColor" stroke-width="1.75" stroke-linecap="round" stroke-linejoin="round">
    <path d="M6.6 4h2.8l1.4 4-1.9 1.5a15 15 0 0 0 5.6 5.6L16 13.2l4 1.4v2.8a1.6 1.6 0 0 1-1.8 1.6A15.8 15.8 0 0 1 5 5.8 1.6 1.6 0 0 1 6.6 4Z" />
  </symbol>
  <symbol id="user" viewBox="0 0 24 24" fill="none" stroke="currentColor" stroke-width="1.75" stroke-linecap="round" stroke-linejoin="round">
    <circle cx="12" cy="8" r="3.5" />
    <path d="M5 20a7 7 0 0 1 14 0" />
  </symbol>
  <symbol id="calendar" viewBox="0 0 24 24" fill="none" stroke="currentColor" stroke-width="1.75" stroke-linecap="round" stroke-linejoin="round">
    <rect x="3" y="5" width="18" height="16" rx="2" />
    <path d="M16 3v4" />
    <path d="M8 3v4" />
    <path d="M3 10h18" />
    <path d="M8 14h3" />
    <path d="M13 14h3" />
  </symbol>
  <symbol id="email" viewBox="0 0 24 24" fill="none" stroke="currentColor" stroke-width="1.75" stroke-linecap="round" stroke-linejoin="round">
    <rect x="3" y="5" width="18" height="14" rx="2" />
    <path d="m4 7 8 6 8-6" />
  </symbol>
  <symbol id="sms" viewBox="0 0 24 24" fill="none" stroke="currentColor" stroke-width="1.75" stroke-linecap="round" stroke-linejoin="round">
    <path d="M5 6h14a2 2 0 0 1 2 2v8a2 2 0 0 1-2 2H9l-4 3v-3H5a2 2 0 0 1-2-2V8a2 2 0 0 1 2-2Z" />
    <path d="M8 11h8" />
    <path d="M8 14h5" />
  </symbol>
  <symbol id="geo" viewBox="0 0 24 24" fill="none" stroke="currentColor" stroke-width="1.75" stroke-linecap="round" stroke-linejoin="round">
    <path d="M12 21s6-4.8 6-10a6 6 0 1 0-12 0c0 5.2 6 10 6 10Z" />
    <circle cx="12" cy="11" r="2.2" />
  </symbol>
  <symbol id="pix" viewBox="0 0 24 24" fill="none" stroke="currentColor" stroke-width="1.75" stroke-linecap="round" stroke-linejoin="round">
    <path d="m9 4 3 3 3-3" />
    <path d="m9 20 3-3 3 3" />
    <path d="m4 9 3 3-3 3" />
    <path d="m20 9-3 3 3 3" />
    <path d="m9 9 6 6" />
    <path d="m15 9-6 6" />
  </symbol>
  <symbol id="app" viewBox="0 0 24 24" fill="none" stroke="currentColor" stroke-width="1.75" stroke-linecap="round" stroke-linejoin="round">
    <rect x="7" y="2.5" width="10" height="19" rx="2.5" />
    <path d="M11 5.5h2" />
    <path d="M10.5 18.5h3" />
  </symbol>
  <symbol id="media" viewBox="0 0 24 24" fill="none" stroke="currentColor" stroke-width="1.75" stroke-linecap="round" stroke-linejoin="round">
    <circle cx="10" cy="14" r="2.5" />
    <path d="M12.5 14V7l6-1.5V12" />
    <circle cx="18.5" cy="12" r="2.5" />
  </symbol>
  <symbol id="video" viewBox="0 0 24 24" fill="none" stroke="currentColor" stroke-width="1.75" stroke-linecap="round" stroke-linejoin="round">
    <rect x="3" y="6" width="13" height="12" rx="2" />
    <path d="m16 10 5-3v10l-5-3" />
  </symbol>
  <symbol id="menu" viewBox="0 0 24 24" fill="none" stroke="currentColor" stroke-width="1.75" stroke-linecap="round" stroke-linejoin="round">
    <path d="M7 4h10" />
    <path d="M12 4v16" />
    <path d="M7 8h10" />
    <path d="M7 12h10" />
    <path d="M7 16h10" />
    <path d="M7 20h10" />
  </symbol>
  <symbol id="coupon" viewBox="0 0 24 24" fill="none" stroke="currentColor" stroke-width="1.75" stroke-linecap="round" stroke-linejoin="round">
    <path d="M4 8a2 2 0 0 0 0 4v4a2 2 0 0 0 2 2h12a2 2 0 0 0 2-2v-4a2 2 0 0 0 0-4V8a2 2 0 0 0-2-2H6a2 2 0 0 0-2 2Z" />
    <path d="M12 7v10" stroke-dasharray="2.5 2.5" />
  </symbol>
  <symbol id="shield" viewBox="0 0 24 24" fill="none" stroke="currentColor" stroke-width="1.75" stroke-linecap="round" stroke-linejoin="round">
    <path d="M12 3 5 6v6c0 4.5 2.8 7.5 7 9 4.2-1.5 7-4.5 7-9V6l-7-3Z" />
    <path d="m9.5 12 1.7 1.7 3.6-3.6" />
  </symbol>
  <symbol id="size" viewBox="0 0 24 24" fill="none" stroke="currentColor" stroke-width="1.75" stroke-linecap="round" stroke-linejoin="round">
    <path d="m8 3-4 4 4 4" />
    <path d="M4 7h16" />
    <path d="m16 21 4-4-4-4" />
    <path d="M20 17H4" />
  </symbol>
  <symbol id="frame" viewBox="0 0 24 24" fill="none" stroke="currentColor" stroke-width="1.75" stroke-linecap="round" stroke-linejoin="round">
    <rect x="4" y="4" width="16" height="16" rx="2" />
    <path d="M4 9h16" />
    <path d="M9 20V9" />
  </symbol>
  <symbol id="image" viewBox="0 0 24 24" fill="none" stroke="currentColor" stroke-width="1.75" stroke-linecap="round" stroke-linejoin="round">
    <rect x="3" y="5" width="18" height="14" rx="2" />
    <circle cx="9" cy="10" r="1.5" />
    <path d="m21 16-4.5-4.5L7 21" />
  </symbol>
  <symbol id="image-plus" viewBox="0 0 24 24" fill="none" stroke="currentColor" stroke-width="1.75" stroke-linecap="round" stroke-linejoin="round">
    <rect x="3" y="7" width="12" height="12" rx="2" />
    <circle cx="8" cy="11" r="1.2" />
    <path d="m15 16-3.5-3.5L5 19" />
    <path d="M18 5v6" />
    <path d="M15 8h6" />
  </symbol>
  <symbol id="upload" viewBox="0 0 24 24" fill="none" stroke="currentColor" stroke-width="1.75" stroke-linecap="round" stroke-linejoin="round">
    <path d="M12 16V6" />
    <path d="m8 10 4-4 4 4" />
    <path d="M4 19h16" />
  </symbol>
  <symbol id="trash" viewBox="0 0 24 24" fill="none" stroke="currentColor" stroke-width="1.75" stroke-linecap="round" stroke-linejoin="round">
    <path d="M4 7h16" />
    <path d="M9 7V4h6v3" />
    <path d="m7 7 1 12h8l1-12" />
    <path d="M10 11v5" />
    <path d="M14 11v5" />
  </symbol>
  <symbol id="download" viewBox="0 0 24 24" fill="none" stroke="currentColor" stroke-width="1.75" stroke-linecap="round" stroke-linejoin="round">
    <path d="M12 4v10" />
    <path d="m8 10 4 4 4-4" />
    <path d="M4 19h16" />
  </symbol>
  <symbol id="copy" viewBox="0 0 24 24" fill="none" stroke="currentColor" stroke-width="1.75" stroke-linecap="round" stroke-linejoin="round">
    <rect x="9" y="9" width="11" height="11" rx="2" />
    <path d="M6 15H5a2 2 0 0 1-2-2V5a2 2 0 0 1 2-2h8a2 2 0 0 1 2 2v1" />
  </symbol>
  <symbol id="share" viewBox="0 0 24 24" fill="none" stroke="currentColor" stroke-width="1.75" stroke-linecap="round" stroke-linejoin="round">
    <circle cx="18" cy="5" r="2.5" />
    <circle cx="6" cy="12" r="2.5" />
    <circle cx="18" cy="19" r="2.5" />
    <path d="m8.2 10.8 7.5-4.6" />
    <path d="m8.2 13.2 7.5 4.6" />
  </symbol>
  <symbol id="eye" viewBox="0 0 24 24" fill="none" stroke="currentColor" stroke-width="1.75" stroke-linecap="round" stroke-linejoin="round">
    <path d="M2.5 12S6 5.5 12 5.5 21.5 12 21.5 12 18 18.5 12 18.5 2.5 12 2.5 12Z" />
    <circle cx="12" cy="12" r="3" />
  </symbol>
  <symbol id="chevron-down" viewBox="0 0 24 24" fill="none" stroke="currentColor" stroke-width="1.9" stroke-linecap="round" stroke-linejoin="round">
    <path d="m6 9 6 6 6-6" />
  </symbol>
  <symbol id="chevron-right" viewBox="0 0 24 24" fill="none" stroke="currentColor" stroke-width="1.9" stroke-linecap="round" stroke-linejoin="round">
    <path d="m9 6 6 6-6 6" />
  </symbol>
  <symbol id="globe" viewBox="0 0 24 24" fill="none" stroke="currentColor" stroke-width="1.75" stroke-linecap="round" stroke-linejoin="round">
    <circle cx="12" cy="12" r="9" />
    <path d="M3 12h18" />
    <path d="M12 3a13.5 13.5 0 0 1 0 18" />
    <path d="M12 3a13.5 13.5 0 0 0 0 18" />
  </symbol>
  <symbol id="clock" viewBox="0 0 24 24" fill="none" stroke="currentColor" stroke-width="1.75" stroke-linecap="round" stroke-linejoin="round">
    <circle cx="12" cy="12" r="9" />
    <path d="M12 7v5l3 2" />
  </symbol>
  <symbol id="monitor" viewBox="0 0 24 24" fill="none" stroke="currentColor" stroke-width="1.75" stroke-linecap="round" stroke-linejoin="round">
    <rect x="2" y="3" width="20" height="14" rx="2" />
    <path d="M8 21h8" />
    <path d="M12 17v4" />
  </symbol>
  <symbol id="eye-off" viewBox="0 0 24 24" fill="none" stroke="currentColor" stroke-width="1.75" stroke-linecap="round" stroke-linejoin="round">
    <path d="M2 2l20 20" />
    <path d="M6.7 6.7C4.2 8.3 2 12 2 12s4 8 10 8c2.3 0 4.3-.9 5.9-2.3" />
    <path d="M10.5 5.2C11 5.1 11.5 5 12 5c6 0 10 7 10 7s-1.1 1.9-3 3.4" />
    <path d="M14 14a4 4 0 0 1-5.4-5.4" />
  </symbol>
  <symbol id="zap" viewBox="0 0 24 24" fill="none" stroke="currentColor" stroke-width="1.75" stroke-linecap="round" stroke-linejoin="round">
    <path d="M13 2 4.5 13.5H12L11 22l8.5-11.5H12L13 2Z" />
  </symbol>
  <symbol id="check" viewBox="0 0 24 24" fill="none" stroke="currentColor" stroke-width="2" stroke-linecap="round" stroke-linejoin="round">
    <path d="m5 12 5 5L19 7" />
  </symbol>
  <symbol id="x" viewBox="0 0 24 24" fill="none" stroke="currentColor" stroke-width="1.9" stroke-linecap="round" stroke-linejoin="round">
    <path d="M18 6 6 18" />
    <path d="m6 6 12 12" />
  </symbol>
  <symbol id="plus" viewBox="0 0 24 24" fill="none" stroke="currentColor" stroke-width="1.9" stroke-linecap="round" stroke-linejoin="round">
    <path d="M12 5v14" />
    <path d="M5 12h14" />
  </symbol>
  <symbol id="filter" viewBox="0 0 24 24" fill="none" stroke="currentColor" stroke-width="1.75" stroke-linecap="round" stroke-linejoin="round">
    <path d="M3 6h18" />
    <path d="M7 12h10" />
    <path d="M11 18h2" />
  </symbol>
  <symbol id="search" viewBox="0 0 24 24" fill="none" stroke="currentColor" stroke-width="1.75" stroke-linecap="round" stroke-linejoin="round">
    <circle cx="11" cy="11" r="7" />
    <path d="m21 21-4.3-4.3" />
  </symbol>
</svg>
